<svg xmlns="http://www.w3.org/2000/svg" viewBox="0 0 175 44" role="img" aria-label="Dataiku">
  <title>Dataiku</title>
  <!-- Icon: dark circle background + white bird mark -->
  <g transform="translate(2,4) scale(1.4)">
    <!-- Dark background circle -->
    <circle cx="12" cy="12" r="12" fill="#0D0D0D"/>
    <!-- White bird mark (official Dataiku icon) -->
    <path fill="#FFFFFF" d="M18.527 15.34H12.5v-.934h6.027zm-.739-8.73s-.412.543-.193 1.995c.41 2.724-1.02 5.15-3.56 5.15h-1.87s-1.835-.092-2.933 1.01c-3.263 3.269-4.04 4.116-4.274 4.233-.15.08-.188-.093-.188-.093l9.644-11.891c-.203-2.145 2.34-2.715 3.278-1.13l.884-.248zm-1.599-.614a.476.476 0 1 0 .47.474.476.476 0 0 0-.47-.474z"/>
  </g>
  <!-- Wordmark -->
  <text x="42" y="29"
    font-family="'Arial', 'Helvetica Neue', sans-serif"
    font-size="20"
    font-weight="600"
    letter-spacing="-0.3"
    fill="#0D0D0D">Dataiku</text>
</svg>
